<svg width="14" height="14" viewBox="0 0 14 14" fill="none" xmlns="http://www.w3.org/2000/svg">
<g id="x">
<path id="Icon (Stroke)" fill-rule="evenodd" clip-rule="evenodd" d="M3.08751 3.0876C3.31532 2.8598 3.68466 2.8598 3.91247 3.0876L6.99999 6.17512L10.0875 3.0876C10.3153 2.8598 10.6847 2.8598 10.9125 3.0876C11.1403 3.31541 11.1403 3.68475 10.9125 3.91256L7.82495 7.00008L10.9125 10.0876C11.1403 10.3154 11.1403 10.6848 10.9125 10.9126C10.6847 11.1404 10.3153 11.1404 10.0875 10.9126L6.99999 7.82504L3.91247 10.9126C3.68466 11.1404 3.31532 11.1404 3.08751 10.9126C2.85971 10.6848 2.85971 10.3154 3.08751 10.0876L6.17503 7.00008L3.08751 3.91256C2.85971 3.68475 2.85971 3.31541 3.08751 3.0876Z" fill="#fff"/>
</g>
</svg>
